<svg xmlns="http://www.w3.org/2000/svg" viewBox="0 0 43.56897 55.22943">
  <defs>
    <style>
      .a {
        fill: #231f20;
      }
    </style>
  </defs>
  <g>
    <polygon class="a" points="19.428 40.863 15.789 55.229 23.397 55.229 22.152 45.242 19.428 40.863"/>
    <path class="a" d="M47.18872.59045H8.48907A2.43464,2.43464,0,0,0,6.05444,3.02509V53.38525a2.43464,2.43464,0,0,0,2.43463,2.43464h5.44416L17.44592,35.637c.05085-.24438.10858-.48877.17371-.73a4.38171,4.38171,0,0,1-.98914-.008l-3.6087-.48413c-2.00043-.26837-3.37067-1.83661-3.045-3.48493,0,0,1.78064-7.605,3.50982-9.28888,1.72925-1.6839,5.4571-4.79034,8.02674-4.75366a3.15768,3.15768,0,0,1,.72528.08984,5.65932,5.65932,0,0,1,.81415-.71978,7.243,7.243,0,0,1-1.0066-.88568c-2.9284.71789-5.11554.74206-5.69189-.10346-.59174-.868.652-2.454,3.04095-4.1944a10.82492,10.82492,0,0,1-.3692-1.14672,4.11071,4.11071,0,0,1-.22449-2.34357,2.30031,2.30031,0,0,1,1.77649-1.816,10.29883,10.29883,0,0,0,6.23511-2.84845,2.26484,2.26484,0,0,1,3.08716-.35028,9.57939,9.57939,0,0,1,1.984,1.43091c.31494.25024.69568.58795,1.0028.86779,2.95716-.73162,5.16956-.76226,5.74964.08869.588.86267-.63666,2.43426-2.99634,4.16193a5.47062,5.47062,0,0,1,.5116,2.28485,6.11682,6.11682,0,0,1-2.8783,5.01666,6.29208,6.29208,0,0,1,1.005.81512l.01519-.01593a2.33911,2.33911,0,0,0,1.98523.3548,14.63732,14.63732,0,0,0,4.53662-2.106c3.86475-2.23431,5.35114-3.65313,5.0492-.8753a17.21444,17.21444,0,0,1-.73212,3.88025s-7.19262,4.36956-9.66363,6.44244L33.22955,35.1l2.44092,7.2705,1.73224,13.44941h9.786a2.43465,2.43465,0,0,0,2.43469-2.43464V3.02509A2.43465,2.43465,0,0,0,47.18872.59045Z" transform="translate(-6.05444 -0.59045)"/>
  </g>
</svg>
