<svg xmlns="http://www.w3.org/2000/svg" viewBox="0 0 75.12499 31.04806">
  <defs>
    <style>
      .a {
        fill: #ee7423;
      }

      .b {
        fill: #fff;
      }
    </style>
  </defs>
  <g>
    <path class="a" d="M667.99787,683.88453a57.49241,57.49241,0,0,1,8.646.213c3.533.338,3.826.922,9.772.912a11.36619,11.36619,0,0,0,4.188-1.054l52.519-21.598-3.086-7.639Z" transform="translate(-667.99787 -654.71854)"/>
    <g>
      <path class="b" d="M683.72363,683.20312l.14649,2.22657-.834.33691-.40136-7.10351.97265-.39258,4.6543,5.38476-.86133.34766-1.46191-1.69531Zm1.79395-1.458-1.33692-1.54981c-.30468-.35156-.54687-.68554-.78515-1.00879l-.01856.00684c.05664.40723.1084.8291.1416,1.25781l.11915,2.05371Z" transform="translate(-667.99787 -654.71854)"/>
      <path class="b" d="M693.57324,681.18555a6.26935,6.26935,0,0,1-1.77929,1.11816,3.16293,3.16293,0,0,1-4.4795-1.85547,3.37915,3.37915,0,0,1,2.0791-4.59179,4.14022,4.14022,0,0,1,1.67383-.34083l.07032.73536a3.50935,3.50935,0,0,0-1.48829.28906,2.51943,2.51943,0,0,0-1.49707,3.52637,2.469,2.469,0,0,0,3.42774,1.54785,2.86777,2.86777,0,0,0,1.00781-.60059l-.75293-1.86426-1.26953.5127-.26172-.64746,2.05664-.83106Z" transform="translate(-667.99787 -654.71854)"/>
      <path class="b" d="M699.40527,678.8291a6.26933,6.26933,0,0,1-1.77929,1.11817,3.16293,3.16293,0,0,1-4.4795-1.85547,3.37917,3.37917,0,0,1,2.07911-4.5918,4.14027,4.14027,0,0,1,1.67382-.34082l.07032.73633a3.49076,3.49076,0,0,0-1.48828.28808,2.51942,2.51942,0,0,0-1.49707,3.52637,2.469,2.469,0,0,0,3.42773,1.54785,2.86764,2.86764,0,0,0,1.00781-.60058L697.667,676.793l-1.26953.51269-.26172-.64746,2.05664-.83105Z" transform="translate(-667.99787 -654.71854)"/>
      <path class="b" d="M698.05078,672.53125a9.074,9.074,0,0,1,1.49512-.75488,2.75652,2.75652,0,0,1,2.01367-.21973,1.67447,1.67447,0,0,1,.96973.98731,1.7685,1.7685,0,0,1-.53321,2.06933l.01172.02832a1.6763,1.6763,0,0,1,1.42676.88965,10.68451,10.68451,0,0,0,1.17481,1.51855l-.834.33692a8.7172,8.7172,0,0,1-1.02051-1.32324c-.53418-.78711-.998-.97657-1.74218-.708l-.75879.30762,1.09277,2.70507-.80566.3252Zm1.95606,2.51953.82421-.333a1.32575,1.32575,0,0,0,.92969-1.75586c-.32519-.80566-1.05176-.92187-1.9082-.58691a3.60184,3.60184,0,0,0-.76758.39551Z" transform="translate(-667.99787 -654.71854)"/>
      <path class="b" d="M707.36621,672.53027l-2.42773.98047.91015,2.252,2.70508-1.09278.27344.67578-3.51172,1.41895-2.52344-6.24512,3.373-1.36328.27344.67676-2.56739,1.03711.79786,1.97363,2.42773-.98145Z" transform="translate(-667.99787 -654.71854)"/>
      <path class="b" d="M709.25684,674.0293a3.06863,3.06863,0,0,0,1.61132-.17676c.82422-.333,1.13086-.96289.877-1.59277-.23633-.584-.70606-.78321-1.67969-.76661-1.166.05079-2.00977-.22265-2.36523-1.10351a1.94129,1.94129,0,0,1,1.335-2.5127,3.05766,3.05766,0,0,1,1.50488-.251l.04394.74707a2.684,2.684,0,0,0-1.30566.18261c-.85352.34473-.97168.98536-.79883,1.41211.23535.584.73047.71778,1.72754.70313,1.22168-.01953,1.96387.27344,2.335,1.19043.38867.96387.0127,2.08594-1.46094,2.68066a3.46572,3.46572,0,0,1-1.7539.2461Z" transform="translate(-667.99787 -654.71854)"/>
      <path class="b" d="M713.69043,672.23828a3.07024,3.07024,0,0,0,1.60937-.17578c.82422-.333,1.13086-.96387.877-1.59375-.23633-.584-.70508-.78223-1.67969-.7666-1.165.05078-2.00781-.22168-2.36426-1.10352a1.94065,1.94065,0,0,1,1.335-2.51172,3.04449,3.04449,0,0,1,1.50391-.25195l.04492.748a2.68392,2.68392,0,0,0-1.30664.18164c-.85351.34473-.9707.98535-.79883,1.41211.23633.584.73145.71777,1.72852.70312,1.2207-.01855,1.96387.27442,2.334,1.19141.38965.96289.01367,2.085-1.46,2.68066a3.47938,3.47938,0,0,1-1.75488.24512Z" transform="translate(-667.99787 -654.71854)"/>
      <path class="b" d="M716.80078,664.85938l2.52344,6.24511-.80567.32617-2.52343-6.24609Z" transform="translate(-667.99787 -654.71854)"/>
      <path class="b" d="M721.89258,670.06738l-4.56153-5.42187.8711-.35254,2.21582,2.68359c.6084.73438,1.14746,1.40039,1.61035,2.06543l.01856-.00781c-.11622-.793-.17481-1.68555-.22559-2.61426l-.19043-3.51269.86133-.34766.29,7.14844Z" transform="translate(-667.99787 -654.71854)"/>
      <path class="b" d="M727.52344,664.38574l-2.42774.98145.90918,2.25195,2.707-1.09375.27247.67578-3.51172,1.41992-2.52344-6.24609,3.37305-1.3623.27343.67578-2.56738,1.03711.79785,1.97363,2.42774-.98145Z" transform="translate(-667.99787 -654.71854)"/>
    </g>
  </g>
</svg>
