<svg xmlns="http://www.w3.org/2000/svg" viewBox="0 0 56.69292 56.69292">
  <defs>
    <style>
      .a {
        fill: #58595b;
      }

      .b {
        fill: #fff;
      }
    </style>
  </defs>
  <g>
    <g>
      <circle class="a" cx="28.34668" cy="28.34668" r="27.84668"/>
      <path class="b" d="M28.34646,1A27.34646,27.34646,0,1,1,1,28.34646,27.37743,27.37743,0,0,1,28.34646,1m0-1A28.34646,28.34646,0,1,0,56.69292,28.34646,28.34646,28.34646,0,0,0,28.34646,0Z" transform="translate(0 0)"/>
    </g>
    <g>
      <path class="b" d="M34.5683,15.54379a22.98242,22.98242,0,0,1,.38116,3.21712,45.98253,45.98253,0,0,1-.01045,6.855,5.451,5.451,0,0,0,.13492,1.15774A45.62132,45.62132,0,0,0,36.92,34.809c.80134,2.48209,1.60743,4.96219,2.50572,7.41045.47391,1.2916,1.031,2.55243,1.5297,3.83526a6.46539,6.46539,0,0,0,.96467,2.08494c.34933.39329.265.86287.41775,1.28218a1.59741,1.59741,0,0,0,.54772.91169.31912.31912,0,0,1,.13514.25365c.012.08964.003.19768.124.214a.182.182,0,0,0,.14851-.05266c.06508-.09489.01273-.18154-.04126-.27347a5.40276,5.40276,0,0,1-.78247-1.424,15.92711,15.92711,0,0,0-.71165-1.824c-.45412-1.32186-.90628-2.64448-1.37448-3.96137-.4593-1.29182-.89248-2.59161-1.27576-3.908-.36012-1.23691-.58138-2.50679-.89034-3.755-.40116-1.62074-.84408-3.23286-1.13459-4.87671a10.25785,10.25785,0,0,1-.21979-2.82269c.00668-.06594-.02487-.70876-.02363-.77514.00172-.0923.00165-.18463.00235-.27695a.40959.40959,0,0,1,.1353.30868,23.74354,23.74354,0,0,0,.24062,2.68413,33.58607,33.58607,0,0,0,.63807,3.39791c.33084,1.36371.64841,2.73073.98921,4.09193a48.82479,48.82479,0,0,0,1.51258,4.92672c.37562,1.02641.65343,2.089.96612,3.138.47819,1.60417,1.24828,3.09253,1.83566,4.65324a.17987.17987,0,0,0,.03651.06486c.17049.16767.23815.51213.469.518.30746.00785.22909-.36764.33493-.56594a17.8956,17.8956,0,0,1,2.30121-3.02616,14.08421,14.08421,0,0,1,2.57273-2.37119c.68413-.48955,1.42721-.89678,2.1448-1.33942.08466-.05222.17319-.0986.26214-.1433.12006-.06036.191-.20491.34747-.20215a.50771.50771,0,0,1-.30952.333,12.2955,12.2955,0,0,0-1.85968,1.17718,10.98828,10.98828,0,0,0-1.9399,1.67045,20.76489,20.76489,0,0,0-2.574,2.873,11.79124,11.79124,0,0,0-1.18652,2.002c-.10028.23877-.522.3514-.80932.49693-.07825.03963-.13117-.07343-.09328-.15.13517-.27329-.02355-.46229-.15121-.68211a25.31605,25.31605,0,0,1-1.29776-2.99046c-.68106-1.62142-1.40427-3.22887-1.99717-4.88257-.6408-1.78733-1.2894-3.57358-1.85262-5.39017-.46664-1.50509-.99946-2.99094-1.43018-4.50746a34.25979,34.25979,0,0,1-1.00057-4.693c-.05723-.41606-.21829-.81274-.30276-1.22892a8.25247,8.25247,0,0,1-.04247-2.33276,41.01165,41.01165,0,0,0-.05843-6.33164c-.07852-1.05427-.19849-2.11219-.29072-3.16961-.01946-.223.01373-.40419.01067-.60551-.00017-.011.0201-.0223.03085-.03347.011.02795.03663.0596.03065.08326-.04634.18337.0385.40564-.0039.58982a.64253.64253,0,0,0,.01371.1892C34.72781,15.36773,34.56108,15.53811,34.5683,15.54379Z" transform="translate(0 0)"/>
      <path class="b" d="M7.43637,44.56665a9.63387,9.63387,0,0,1,1.36616-.198,10.28682,10.28682,0,0,1,5.03088,1.57806,28.81578,28.81578,0,0,1,3.72025,2.99705,29.47637,29.47637,0,0,1,3.76452,3.87476,9.94344,9.94344,0,0,1,1.15716,1.61545.31349.31349,0,0,0,.31706.19717c.16481-.01873.10224-.1678.10957-.26187.16869-2.1629.30938-4.3283.505-6.48873.206-2.27545.35894-4.5569.75686-6.81291.23892-1.35453.49041-2.70475.77076-4.05183.428-2.05667.99363-4.07875,1.46388-6.12453.28913-1.25785.70689-2.48488.9862-3.7494a12.18763,12.18763,0,0,1,.78109-3.04911c.42052-.81572.85631-1.62626,1.23982-2.4582.49536-1.07458.92864-2.17809,1.33156-3.29321.405-1.12077.867-2.22083,1.27847-3.33935.4663-1.26745.90478-2.54516,1.35329-3.81913.02689-.0764.05126-.15649-.04214-.22148a.24612.24612,0,0,0-.27936-.0018,3.72738,3.72738,0,0,0-1.15933.88635,24.13584,24.13584,0,0,1-1.911,1.92019c-1.03881.95888-1.87522,2.09983-2.81182,3.15077-1.0385,1.16529-2.05887,2.34686-2.99792,3.59438-.45331.60223-.83818,1.25693-1.30424,1.8483-.32578.41336-.98815,1.08-1.3628,1.45449-.01957.01957-.058.02029-.08761.02978a.59353.59353,0,0,1-.01994-.13729c.02576-.29309.51387-.75033.70715-.91466a14.80267,14.80267,0,0,0,2.03885-2.564c.9517-1.26,2.03047-2.41668,3.04254-3.62766a23.6235,23.6235,0,0,1,2.78632-2.98472,31.901,31.901,0,0,1,2.678-2.52143c.278-.185.57187-.34628.86122-.51366.03705-.02143.15951-.01443.11881.01438-.36929.26144-.05215.657-.21441.96963A6.65239,6.65239,0,0,0,33.05,12.64648c-.42524,1.35346-.96778,2.66385-1.45491,3.99454-.6712,1.83351-1.33025,3.67082-2.15748,5.44074-.40343.86315-.9094,1.67561-1.27915,2.55791-.20213.48236-.07188,1.0363-.34927,1.49242a3.83461,3.83461,0,0,0-.28538,1.17474c-.36973,1.49774-.7544,2.99182-1.1196,4.49065-.42624,1.74932-.8706,3.49518-1.24847,5.25513a59.96615,59.96615,0,0,0-1.3088,8.3633c-.17909,2.5366-.46212,5.0652-.61754,7.60521a15.10932,15.10932,0,0,1-.18543,1.97539c-.00746.03825-.01543.0764-.02317.1146a1.02851,1.02851,0,0,1-.14721-.07056,5.167,5.167,0,0,1-1.12249-1.38866c-.58035-.79789-1.313-1.4531-1.94273-2.20156a39.86146,39.86146,0,0,0-3.75758-3.56346A11.71563,11.71563,0,0,0,8.51819,44.531a1.37551,1.37551,0,0,0-.73012.11012.23837.23837,0,0,1-.34754-.08055Z" transform="translate(0 0)"/>
      <path class="b" d="M7.44053,44.56053a1.08055,1.08055,0,0,1-.40994.25551,1.02817,1.02817,0,0,0-.29874.20725c-.048.03827.14324.16774-.04189.15292a.23008.23008,0,0,1-.22127-.21242,1.84223,1.84223,0,0,1,.12084-.87772,9.13633,9.13633,0,0,0,.21854-2.03622,17.80614,17.80614,0,0,0-.046-2.76448,26.7918,26.7918,0,0,0-1.17655-5.84553,11.82353,11.82353,0,0,0-.49511-1.29879.71813.71813,0,0,1,.05962-.859A8.48444,8.48444,0,0,1,6.16,30.1215c.04914-.04478.1046-.11714.19363-.06694-.03765.05087-.07422.10257-.1131.15247-.32952.42277-.67117.83679-.98387,1.27163a.61543.61543,0,0,0-.02156.64815A11.32962,11.32962,0,0,1,6.2377,34.87107a30.95144,30.95144,0,0,1,.67912,4.31368c.10317,1.09706.08708,2.18152.11464,3.272.00168.06631-.00638.13292-.01074.19933-.009.13708-.01856.27412-.02789.41117a1.56369,1.56369,0,0,0,.3426-.32858,19.79856,19.79856,0,0,0,.99329-1.9508c.27562-.67951.6437-1.30576.9787-1.95012.48041-.92405.97443-1.84444,1.52388-2.72831.6857-1.103,1.30712-2.24534,2.059-3.30889.81721-1.156,1.54759-2.3759,2.40306-3.50164.96439-1.26906,1.77135-2.64556,2.7636-3.89485a18.5425,18.5425,0,0,0,1.15963-1.82037,2.29607,2.29607,0,0,1,.8209-.77459.58007.58007,0,0,1,.11014-.03158c-.00827.02828-.00747.06674-.02613.08338-.09274.08274-.27387.24526-.3561.33526-.69911.76509-1.05558,1.76706-1.69708,2.57168-1.38674,1.73937-2.52125,3.65621-3.83377,5.44828A48.59087,48.59087,0,0,0,10.86262,36.465a43.175,43.175,0,0,0-2.7459,5.26765c-.2876.74947-.8515,1.35479-1.12493,2.11664a2.53867,2.53867,0,0,1-.34216.87484c-.01658.01948-.00737.06092-.01014.09215.02927-.00842.05864-.01652.0878-.02533a.896.896,0,0,0,.47692-.4829c.62415-1.06747,1.207-2.15978,1.85278-3.2137.52273-.85312,1.13852-1.649,1.6684-2.49805.50429-.80812.95487-1.65,1.42171-2.4812A47.00234,47.00234,0,0,1,14.846,31.97316c1.02123-1.43994,2.004-2.91181,3.10217-4.29117a40.28038,40.28038,0,0,1,3.29243-3.75363c.05134-.04947.10309-.13869.20557-.09458a1.21992,1.21992,0,0,1-.13133.20326,44.8767,44.8767,0,0,0-3.32559,3.89974c-1.10743,1.46346-2.13856,2.98451-3.21039,4.47511-.65521.9112-1.32179,1.81468-1.88828,2.78512-.49085.84087-.9451,1.70369-1.45306,2.53384-.68755,1.12364-1.4401,2.20808-2.11059,3.3414a28.77151,28.77151,0,0,0-1.85115,3.25936.99406.99406,0,0,0-.03964.23546Z" transform="translate(0 0)"/>
      <path class="b" d="M37.71888,12.91921c.09054-1.25844.2172-2.87213.36185-4.48513a2.602,2.602,0,0,0-.37406-2.05185c-.0425-.05074-.13017-.16544-.02731-.20762.09805-.04021.18218.07016.21576.16624a3.5098,3.5098,0,0,1,.27672,1.28465c-.05521,1.34367-.14884,2.68572-.2103,4.02919-.02693.58871-.01362,1.17932-.01578,1.76908a2.81977,2.81977,0,0,1-.07384,1.15406c-.10084.24212.12992.47995.195.71984a13.07545,13.07545,0,0,0,.4963,1.80681,11.40362,11.40362,0,0,0,1.93025,3.4015,12.16906,12.16906,0,0,0,2.51962,1.97769c1.08508.67615,2.17293,1.34671,3.30994,1.9357a23.48722,23.48722,0,0,0,2.58067,1.041,25.13843,25.13843,0,0,0,3.04365.93995,15.45606,15.45606,0,0,0,3.17178.5005c.31533.00791.63043.031.94514.05405.1023.00748.26858-.00726.26824.11474-.00043.15741-.17166.09073-.26059.08583a22.48611,22.48611,0,0,1-5.25235-.82637,26.72754,26.72754,0,0,1-6.47278-2.7233,14.76093,14.76093,0,0,1-3.67292-2.70757.51072.51072,0,0,0-.37788-.212,3.13242,3.13242,0,0,0,.0776.40325c.15063.46075.59262.65837.90615.96986.82511.81976,1.68727,1.60286,2.49818,2.43609.56615.58172,1.00232,1.27693,1.58479,1.85454a26.50373,26.50373,0,0,0,2.80257,2.50381,33.51658,33.51658,0,0,1,3.32356,2.48211c.70522.67653,1.23892.26409,1.84679.11177.61524-.15417,1.48972-.27016,2.11139-.37513.13109-.02213.33044-.04315.34226.135.012.18037-.18608.13386-.31058.15493a13.32353,13.32353,0,0,0-3.14.61323c-.444.201-.65623-.20809-.90067-.40841-.79139-.64856-1.66836-1.17439-2.47445-1.80118a30.14408,30.14408,0,0,1-3.71516-3.11434c-.60733-.65276-1.1722-1.33886-1.71813-2.04988a22.67681,22.67681,0,0,0-2.33567-2.3699,4.09443,4.09443,0,0,1-1.01269-1.18432c-.76942-1.71619-1.85894-3.29877-2.2595-5.16743A11.9515,11.9515,0,0,1,37.71888,12.91921Z" transform="translate(0 0)"/>
      <path class="b" d="M23.50284,55.03968c.2259-1.49711.35417-3.00588.62064-4.5005.33932-1.90327.58422-3.82511.81584-5.74545.32345-2.68162.82638-5.33439,1.244-8.0005.23691-1.51239.64085-2.99789.93475-4.50231a17.78085,17.78085,0,0,1,1.03707-3.49847,5.76773,5.76773,0,0,1,.6314-1.26365,5.47593,5.47593,0,0,0,.68286-2.26927,18.524,18.524,0,0,1,1.22361-3.355c.5-1.10992.94291-2.24737,1.48393-3.33645A30.227,30.227,0,0,1,33.6,15.534c.2067-.3215.4796-.61722.69957-.92981.03026-.043.0796-.12555.157-.07159.01213.00846-.02155.10308-.05057.14694a9.41989,9.41989,0,0,0-.84106,1.175c-.66683,1.47134-1.28928,2.96284-1.92492,4.44825-.54674,1.27765-1.1972,2.51234-1.63713,3.8337a23.627,23.627,0,0,0-.635,2.47734,5.70147,5.70147,0,0,1-.56556,1.29038,22.84585,22.84585,0,0,0-1.82015,5.96314c-.3974,2.022-.8063,4.04231-1.09932,6.08347-.38022,2.64861-.72245,5.30361-1.16019,7.94273-.33574,2.02417-.52007,4.06863-.887,6.08724a1.06973,1.06973,0,0,0,.073.72149c.0898.17516-.12848.36446-.1783.558-.04467-.01316-.09066-.023-.13373-.04019A.14549.14549,0,0,1,23.50284,55.03968Z" transform="translate(0 0)"/>
      <path class="b" d="M52.585,34.68927a19.43358,19.43358,0,0,1-2.80422-.60363c-.39231-.1333-.56633-.523-.8197-.8133-1.11956-1.28263-2.3857-2.41861-3.58314-3.62325a46.16767,46.16767,0,0,1-3.49686-3.70455,43.75768,43.75768,0,0,1-2.874-3.66338,8.9155,8.9155,0,0,1-1.03163-2.064,14.03129,14.03129,0,0,0-.81179-1.78442,5.733,5.733,0,0,1-.44093-1.23813,1.01763,1.01763,0,0,0-.25032-.55237.29752.29752,0,0,1-.08827-.17011c-.01674-.20084-.10381-.46642.12642-.55073.09115-.03338.14031.2669.18314.42344A17.37265,17.37265,0,0,0,38.098,19.91961a22.68763,22.68763,0,0,0,.985,2.06205,36.72564,36.72564,0,0,0,2.33232,3.0366,76.52731,76.52731,0,0,0,6.05389,6.30912c.72813.7021,1.37016,1.49362,2.04969,2.24594a1.32853,1.32853,0,0,0,.71838.42393,16.68327,16.68327,0,0,0,3.0862.39281c.59388.0064,1.13352-.2755,1.72177-.24722.10972.00529.29013-.05061.30729.08077.02214.16947-.17544.15077-.28406.15814A22.87009,22.87009,0,0,1,52.585,34.68927Z" transform="translate(0 0)"/>
      <path class="b" d="M38.56126,50.86944c-.68658-.35152-1.53634-.02331-2.23458-.47626a.31679.31679,0,0,0-.39675.04022,1.19,1.19,0,0,1-.73209.27956c-1.14311.10906-2.27066.33025-3.40353.50029A15.34019,15.34019,0,0,0,28.423,52.23446a16.86427,16.86427,0,0,0-4.18929,2.31441c-.04409.03443-.08336.08745-.15163.04953.02622-.03876.051-.0786.07888-.11612a5.3651,5.3651,0,0,1,1.57648-1.09861,11.60428,11.60428,0,0,1,1.89979-1.02476A21.73615,21.73615,0,0,1,31.366,51.1166c1.29158-.2819,2.62685-.35216,3.90162-.66736,1.18451-.29289,2.25927.12363,3.38375.19526a.40724.40724,0,0,1,.33007.11418Z" transform="translate(0 0)"/>
      <path class="b" d="M20.03747,22.63241A4.85337,4.85337,0,0,1,21.364,20.64075a17.00111,17.00111,0,0,0,4.34888-4.30092,50.73553,50.73553,0,0,1,3.78316-4.74415c.507-.532,1.062-1.49529,1.52589-2.069.07466-.09235.23563-.25077.27592-.19631.09775.13209-.08566.21864-.16276.31535-1.11437,1.39789-2.42821,3.09024-3.53819,4.49362a40.51932,40.51932,0,0,1-4.53881,5.40749,14.353,14.353,0,0,0-2.08686,1.83274,10.2576,10.2576,0,0,0-.69191,1.29186c-.032.06134-.062.17379-.14414.14243C20.08136,22.79325,20.062,22.68221,20.03747,22.63241Z" transform="translate(0 0)"/>
      <path class="b" d="M.88757,27.70365c-.32939.0815-.22722-.119-.17742-.27662a4.76752,4.76752,0,0,1,1.38034-1.76335c1.38223-1.43,2.8375-2.789,4.24-4.19983a24.22876,24.22876,0,0,1,2.30325-2.3067c1.13015-.866,2.16568-1.84671,3.34876-2.65112.94259-.64089,2.12279-1.53347,3.02862-2.22917.112-.086.223-.20514.39213-.18115-.05861.14691-.22006.15183-.32485.23517-.5961.47409-1.42971,1.177-2.0716,1.59985A49.30518,49.30518,0,0,0,9.00011,19.0046a30.27022,30.27022,0,0,0-2.73365,2.74684c-.60936.6432-1.28333,1.22467-1.91568,1.84668-1.09674,1.07877-2.19782,2.15446-3.192,3.331a1.11431,1.11431,0,0,0-.27783.78115Z" transform="translate(0 0)"/>
      <path class="b" d="M15.71927,14.00968c-.02813-.01168-.3232.1114-.34379.10284a.59281.59281,0,0,1,.08132-.11714,5.93354,5.93354,0,0,1,1.82965-.95084,25.61871,25.61871,0,0,0,3.468-1.507A35.69819,35.69819,0,0,1,25.02116,9.8004c1.7889-.6227,3.574-1.25645,5.36449-1.8744,1.13224-.39075,2.30269-.64624,3.46373-.93234a1.03539,1.03539,0,0,0,.66226-.34956c.04757-.064.17444-.08045.26845-.09371.04583-.00647.07434.05135.05083.11295a.29534.29534,0,0,1-.21089.18883c-2.0668.63043-4.18219,1.09386-6.21027,1.86024-1.59729.60359-3.23068,1.11206-4.82539,1.722a42.74382,42.74382,0,0,0-4.44925,2.001c-.76754.39908-1.63657.54551-2.40707.94488a5.39757,5.39757,0,0,0-1.0985.63428C15.57785,14.066,15.78227,13.96729,15.71927,14.00968Z" transform="translate(0 0)"/>
      <path class="b" d="M15.662,15.32291a6.12362,6.12362,0,0,1-1.38216.91238A36.37982,36.37982,0,0,0,10.58,19.09394c-1.20577,1.00009-2.405,2.00684-3.6303,2.98414a27.14586,27.14586,0,0,0-2.95348,2.78224c-.68824.742-1.80934,1.86176-2.43779,2.65915-.07225.09167-.25636.20792-.26964.17454-.056-.14066.12213-.17392.19413-.261,1.22526-1.48181,2.98859-3.23942,4.355-4.58667.57667-.56859,1.26856-.99093,1.88772-1.50275.68386-.56531,1.36226-1.13851,2.03936-1.712,1.14522-.97,2.28909-1.94445,3.49528-2.83319a13.24356,13.24356,0,0,1,2.40578-1.47109Z" transform="translate(0 0)"/>
      <path class="b" d="M15.66607,15.3273c.05886-.05464.11111-.14638.17759-.15822.726-.12923,1.176-.71487,1.76984-1.061a21.32968,21.32968,0,0,1,3.25207-1.42625c1.279-.48389,2.53666-1.02429,3.81449-1.51154a44.84117,44.84117,0,0,1,4.3807-1.38744,20.635,20.635,0,0,0,2.27241-.63442c.04354-.01719.10321.00654.15538.01124a.65448.65448,0,0,1-.09358.11084c-.20395.15538-.45961.11823-.68967.17758a47.4522,47.4522,0,0,0-6.88871,2.17032c-1.85354.794-3.78635,1.38725-5.60414,2.265a4.45267,4.45267,0,0,0-1.29709.86541c-.34292.35229-.84205.36836-1.25338.57408Z" transform="translate(0 0)"/>
      <path class="b" d="M.881,27.71028c.4095-.2769.65868.07824.96505.236a5.40267,5.40267,0,0,1,2.08266,2.1534,2.65145,2.65145,0,0,0,.62545.90148c.092.06654.01186.15642-.05006.20526-.09114.07189-.173.0325-.22829-.05955-.14437-.24058-.30041-.47549-.42671-.72534A6.92385,6.92385,0,0,0,1.58257,27.9007c-.11549-.08174-.232-.15059-.37312-.013a.27527.27527,0,0,1-.29835.012c-.10769-.04645-.00907-.13089-.02348-.19611Z" transform="translate(0 0)"/>
      <path class="b" d="M36.60479,23.50759c.07641.66644.28767,2.52172.35837,3.18877.00634.0598.03856.16544-.07768.17745a.15121.15121,0,0,1-.17891-.16027c-.06485-1.25712-.661-4.10476-.49014-5.38606.0065-.0488.0151-.09732.02272-.146.03133.0441.06174.08889.09416.13217a.427.427,0,0,1,.06374.35689,8.04248,8.04248,0,0,0-.02239,2.00686,1.55,1.55,0,0,0,.12853.34264c.016-.12584.03382-.25149.0471-.37762a.77829.77829,0,0,0-.00575-.1224Z" transform="translate(0 0)"/>
      <path class="b" d="M36.23629,21.28535c0-1.20431-.00735-2.40869.00613-3.61285a9.17922,9.17922,0,0,0,.11752-1.11895c-.00511-.03018.02354-.06607.03654-.09932.021.03248.05727.06348.06062.09769a6.68473,6.68473,0,0,1-.01894.99855,28.94925,28.94925,0,0,0,.00116,2.99031C36.42709,20.81563,36.22111,21.02108,36.23629,21.28535Z" transform="translate(0 0)"/>
      <path class="b" d="M4.855,30.86056l-.07116-.03c.02047-.04244.02948-.10105.06313-.12491.57547-.40808.97994-1.01207,1.58138-1.38653.17513-.109.26559-.326.48768-.36479.09442-.01648.22792.00868.22818.08913.0005.15387-.09683.03169-.159.03038a.16888.16888,0,0,0-.13072.09751c-.08822.45756-.51271.55482-.817.78277-.33807.25327-.666.52-.99936.77965C4.9799,30.7792,4.91662,30.81817,4.855,30.86056Z" transform="translate(0 0)"/>
      <path class="b" d="M36.25325,4.76674a1.64043,1.64043,0,0,1-.61391-.51223A7.77389,7.77389,0,0,0,32.61579,2.455c-.21311-.09555-.46759.10752-.66849-.085a.87025.87025,0,0,1-.09575-.13336.51406.51406,0,0,1,.162-.00791,7.37483,7.37483,0,0,1,4.23572,2.54293Z" transform="translate(0 0)"/>
      <path class="b" d="M39.74811,50.76967c-.12526-.03906-.31027.114-.47428-.02932.142-.15.33571-.07165.49254-.0789a5.02538,5.02538,0,0,1,2.73517.68863c.02036.01147.0305.04109.04541.06224a.47258.47258,0,0,1-.09606-.01594,8.90083,8.90083,0,0,0-2.40872-.60065C39.95946,50.78831,39.87674,50.78107,39.74811,50.76967Z" transform="translate(0 0)"/>
      <path class="b" d="M34.44453,5.11588l-.0164.04806a.55583.55583,0,0,1-.12392-.11568,9.40293,9.40293,0,0,0-1.4989-1.81632c-.12444-.13211-.576-.58771-.70545-.71536-.01919-.01893-.01673-.05982-.0243-.09055.0286.00691.06658.00437.08444.0221A14.90286,14.90286,0,0,1,34.40385,5.01.77567.77567,0,0,1,34.44453,5.11588Z" transform="translate(0 0)"/>
      <path class="b" d="M36.24924,4.77172c.06853.05611.139.1626.20528.16009.40041-.01517.58247.32694.86553.50037a2.20564,2.20564,0,0,1,.3917.77028c.004.01636-.01639.03866-.02548.0582-.03284-.02223-.08451-.03753-.09563-.06776-.11828-.32151-.53058-.90964-.94616-.84182-.16658.02718-.34146-.32556-.3917-.58378Z" transform="translate(0 0)"/>
      <path class="b" d="M34.37528,5.38427c-.00044-.06549-.12138-.13277-.05413-.22446a.19156.19156,0,0,1,.15758-.04282c.13229.022.10105.15069.13032.23772.01543.04591.13473.71964.12926.7673-.01936.16866.13875.31326.063.48789-.0926-.16322-.29677-.947-.38779-1.11113A.75315.75315,0,0,1,34.37528,5.38427Z" transform="translate(0 0)"/>
    </g>
    <path class="b" d="M55.7,31.07465a.52826.52826,0,0,0-.25,0c-.62.1-1.5.22-2.11.37-.61.16-1.15.57-1.85-.11a34.11351,34.11351,0,0,0-3.32-2.48,26.68334,26.68334,0,0,1-2.81-2.5c-.58-.58-1.02-1.28-1.58-1.86-.81-.83-1.68-1.62-2.5-2.43994-.31-.31006-.76-.5-.91-.97a1.14081,1.14081,0,0,1-.02863-.16369,1.10794,1.10794,0,0,1-.04895-.58423.80033.80033,0,0,0-.02569.13715l.027-.161c-.00171.00806.00025.01581-.00128.02387.00281-.02283.00794-.04449.01245-.06665A12.4338,12.4338,0,0,1,38.56,17.10468a12.74865,12.74865,0,0,1-.49-1.81c-.07-.24-.3-.47-.2-.72a3.00086,3.00086,0,0,0,.08-1.15c0-.59-.02-1.18.01-1.77.06-1.34.16-2.69.21-4.03a3.53615,3.53615,0,0,0-.27-1.28c-.04-.09-.11-.19-.2-.17a3.18378,3.18378,0,0,0-.25537-.58606.44453.44453,0,0,0-.12463-.154c-.28-.18-.47-.52-.87-.5-.06,0-.13-.11-.2-.16v-.01l-.01-.01a7.49492,7.49492,0,0,0-4.23-2.53.9139.9139,0,0,0-.16.01.70907.70907,0,0,0,.1.13995.176.176,0,0,0,.13.06.1077.1077,0,0,0,.02.08c.13.13.57995.59.71.72A9.57341,9.57341,0,0,1,34.3,5.04469a.30386.30386,0,0,0,.08.08c-.02.01-.05.02-.06.04-.07.09.05.15.06.22a.52955.52955,0,0,0,.03.11c.08.15.26.81006.36,1.06006a.42773.42773,0,0,0-.26.09,1.00313,1.00313,0,0,1-.66.35c-1.16.29-2.33.54-3.46.93q-2.685.93-5.37,1.88a34.99656,34.99656,0,0,0-4.27,1.73,25.88262,25.88262,0,0,1-3.46,1.51,5.80883,5.80883,0,0,0-1.83.95.36.36,0,0,0-.07.1c-.16-.02-.27.1-.38.18-.9.7-2.08,1.59-3.03,2.23-1.18.81-2.22,1.79-3.35,2.65a26.39087,26.39087,0,0,0-2.3,2.31c-1.4,1.41-2.86,2.77-4.24,4.2-.29.3-.61.58-.88.9a2.3186,2.3186,0,0,0-.5.86.59209.59209,0,0,0-.04.17c-.01.03-.02.05,0,.07v.01c.00994.04.07.07.21.03v.01H.89c0,.06-.08.14.02.19a.31289.31289,0,0,0,.25.01,1.60616,1.60616,0,0,1,.01-.31.50486.50486,0,0,1,.12.02.08452.08452,0,0,0,0,.07c0,.01.05,0,.1-.03a.83119.83119,0,0,0,.17-.15c.63-.79,1.75-1.91,2.44-2.65a26.83227,26.83227,0,0,1,2.95-2.79c1.23-.97,2.42-1.98,3.63-2.98a36.48484,36.48484,0,0,1,3.7-2.86,6.01343,6.01343,0,0,0,1.37-.9.0098.0098,0,0,0,.01-.01h.01l.00994-.01c.41-.2.9-.22,1.24006-.57a4.48017,4.48017,0,0,1,1.29-.86c1.82-.88,3.75-1.47,5.61-2.27a48.34281,48.34281,0,0,1,6.89-2.17c.16-.04.33-.04.48-.08a1.28684,1.28684,0,0,0-.17.16c-.46.58-1.02,1.54-1.52,2.07a49.311,49.311,0,0,0-3.79,4.75,16.93776,16.93776,0,0,1-4.35,4.3,4.834,4.834,0,0,0-1.32,1.99.47113.47113,0,0,0,.06.15c.01.01.03.02.04.03a.07646.07646,0,0,1-.02.05c-.09.08-.27.24-.35.33-.7.77-1.06,1.77-1.7,2.57-1.39,1.74-2.52,3.66-3.84,5.45a49.7824,49.7824,0,0,0-3.37,5.25,43.14017,43.14017,0,0,0-2.74,5.27c-.29.75-.85,1.35-1.13,2.11a2.71925,2.71925,0,0,1-.32.85.54537.54537,0,0,0,.07.09l-.01.01c-.03.01-.06.01-.09.01995,0-.03-.01-.07.01-.09.01-.01.02-.02.02-.03a1.8702,1.8702,0,0,1-.18-.24,1.08921,1.08921,0,0,0-.02.51.23212.23212,0,0,0,.22.21c.19.02-.01-.11005.04-.15.04-.03.08-.07.12-.1a.66937.66937,0,0,1,.18-.11005,1.00831,1.00831,0,0,0,.41-.25.85136.85136,0,0,1,.04-.23,26.81269,26.81269,0,0,1,1.85-3.26c.67-1.14,1.42-2.22,2.11-3.34.51-.83.96-1.7,1.45-2.54.57-.97,1.23-1.87,1.89-2.78,1.07-1.49,2.1-3.01,3.21-4.48a45.57075,45.57075,0,0,1,3.31995-3.9,1.01181,1.01181,0,0,0,.14-.2.06.06,0,0,0-.04-.01.50132.50132,0,0,1-.02-.12c.03-.29.52-.75.71-.91a14.50254,14.50254,0,0,0,2.04-2.57c.95-1.26,2.03-2.41,3.04-3.62a23.96925,23.96925,0,0,1,2.79-2.99,31.93863,31.93863,0,0,1,2.68-2.52,9.26242,9.26242,0,0,1,.86-.51c.03-.03.16-.02.12.01-.37.26-.06.66-.22.97a6.51889,6.51889,0,0,0-.36,1.08c-.43005,1.36-.97,2.67-1.45,4-.68,1.83-1.34,3.67-2.16,5.44-.41.86-.91,1.67-1.28,2.55-.2.49-.07,1.04-.35,1.5a3.93917,3.93917,0,0,0-.29,1.17c-.37,1.5-.75,2.99-1.12,4.49-.42,1.75-.87,3.5-1.24,5.26a58.85724,58.85724,0,0,0-1.31,8.36c-.18,2.54-.47,5.07-.62,7.61a14.595,14.595,0,0,1-.19,1.97.09024.09024,0,0,1-.01.05005c.16.03.32.06.48.07995a.17087.17087,0,0,0,.09.1.64727.64727,0,0,1,.13.04l.03-.09h.01c.07-.16.22-.32.14-.47a1.01606,1.01606,0,0,1-.07-.72c.36-2.02.55-4.07.88-6.09.44-2.64.78-5.3,1.16-7.94.3-2.04.7-4.07,1.1-6.09a22.59241,22.59241,0,0,1,1.82-5.96,5.90266,5.90266,0,0,0,.56995-1.29,23.10468,23.10468,0,0,1,.63-2.48c.44-1.32,1.09-2.55,1.64-3.82995.64-1.49006,1.26-2.98005,1.92-4.45a9.49415,9.49415,0,0,1,.85-1.18c.01-.02.02-.05005.03-.07a.07567.07567,0,0,0,.01-.04h.01c0-.02.01-.02.01-.02.01.02.04.06.03.08-.04.18006.04.41,0,.59a1.21628,1.21628,0,0,0,.01.19c.22-.04.05.13.06.14a24.11079,24.11079,0,0,1,.38,3.22,46.06135,46.06135,0,0,1-.01,6.85,5.65249,5.65249,0,0,0,.13,1.16,45.84517,45.84517,0,0,0,1.85,8.03c.8,2.49,1.61,4.97,2.50994,7.41.47,1.3,1.03,2.56,1.53,3.84a6.3174,6.3174,0,0,0,.96,2.09c.35.39.27.86.42,1.28a1.55239,1.55239,0,0,0,.55.91.31272.31272,0,0,1,.13.25c.01.09,0,.2.12.22.05,0,.13-.02.15-.06006.07-.09.02-.18-.04-.27a5.68358,5.68358,0,0,1-.78-1.42,16.11828,16.11828,0,0,0-.71-1.83c-.46-1.32-.91-2.64-1.38-3.96-.46-1.29-.89-2.59-1.27-3.91-.36005-1.23-.58-2.5-.89-3.75-.4-1.62-.85-3.23-1.14-4.88a10.6808,10.6808,0,0,1-.22-2.82c.00995-.07-.02-.71-.02-.78v-.25h.05c.11-.00995.08-.12.07-.18-.07-.67-.28-2.52-.36-3.19-.02.01-.04.01-.06.02a.48627.48627,0,0,1,.01.12c-.01.12-.03.25-.05.38a2.48618,2.48618,0,0,1-.13-.35,7.87807,7.87807,0,0,1,.03-2,.45875.45875,0,0,0-.07-.36.83457.83457,0,0,1-.08-.12c.02-.22.18-.41.19-.65a27.13119,27.13119,0,0,1,0-2.99,5.46766,5.46766,0,0,0,.02-.92.0098.0098,0,0,1,.01.01.9331.9331,0,0,1,.25.55,6.09922,6.09922,0,0,0,.44,1.24,13.602,13.602,0,0,1,.82,1.78,8.89339,8.89339,0,0,0,1.03,2.07,41.991,41.991,0,0,0,2.87,3.66,45.28982,45.28982,0,0,0,3.5,3.7c1.2,1.21,2.46,2.35,3.58,3.63.25.29.43.68.82.81a17.84169,17.84169,0,0,0,2.81.6,23.43773,23.43773,0,0,0,2.48-.3.195.195,0,0,0,.07-.01c.1,0,.23-.00995.21-.15-.01-.08-.08-.09-.16-.09a23.20033,23.20033,0,0,0,.47-2.79c.08-.01.14-.04.13-.14A.13533.13533,0,0,0,55.7,31.07465Z" transform="translate(0 0)"/>
  </g>
</svg>
