<svg xmlns="http://www.w3.org/2000/svg" viewBox="0 0 30.81206 53.21604">
  <defs>
    <style>
      .a {
        fill: #8956a3;
      }

      .a, .d {
        stroke: #fff;
        stroke-miterlimit: 10;
      }

      .b {
        fill: #d1c1df;
      }

      .c {
        fill: #fff;
      }

      .d {
        fill: none;
      }
    </style>
  </defs>
  <g>
    <polygon class="a" points="17.232 0.729 10.94 7.262 4.407 14.522 0.535 33.639 5.109 39.686 14.812 52.513 22.827 46.377 30.299 40.656 28.847 13.312 17.232 0.729"/>
    <polygon class="b" points="24.312 14.264 28.847 13.312 26.898 18.575 24.312 14.264"/>
    <polygon class="b" points="9.464 15.495 4.657 14.364 11.303 7.152 13.565 7.293 9.464 15.495"/>
    <polygon class="c" points="17.215 0.982 13.531 8.721 11.395 7.124 17.215 0.982"/>
    <polygon class="b" points="20.635 4.748 28.554 13.374 24.986 14.072 20.635 4.748"/>
    <polygon class="b" points="28.413 15.353 26.998 18.181 25.443 43.775 29.968 40.947 28.413 15.353"/>
    <path class="d" d="M17.00645,15.87813l5.14161,1.14342,5.28043,3.98727,9.48322-5.3882,4.0199-.84421a.29072.29072,0,0,1,.33239.38546l-1.766,4.76931" transform="translate(-12.5999 -1.35625)"/>
    <path class="d" d="M27.42849,21.00882l-7.328,21.55278c-.02606.07818-.76029-.56439-.75434-.64659l2.80186-24.89346,3.664-7.43571L23.54,8.61863" transform="translate(-12.5999 -1.35625)"/>
    <polyline class="d" points="6.962 41.421 25.389 44.223 25.821 41.421 26.898 18.575 18.816 2.41"/>
    <path class="c" d="M22.14806,17.02155" transform="translate(-12.5999 -1.35625)"/>
    <polygon class="b" points="9.871 16.42 14.613 19.545 6.854 41.744 9.871 16.42"/>
  </g>
</svg>
