<svg xmlns="http://www.w3.org/2000/svg" viewBox="0 0 51.17067 55.5389">
  <defs>
    <style>
      .a {
        fill: #8a6327;
      }

      .b {
        fill: #fff;
      }
    </style>
  </defs>
  <g>
    <path class="a" d="M14.599,44.88071C7.82211,39.48422,3.26108,29.21811,3.26108,19.3436V5.22153a25.00558,25.00558,0,0,0,6.936.958c9.12451,0,16.669-4.51953,18.16992-5.48047a43.062,43.062,0,0,0,19.2461,4.97315,32.34631,32.34631,0,0,0,5.81836-.519v13.854c0,10.07227-4.73047,20.47119-11.77149,25.87647L28.18881,55.02817Z" transform="translate(-2.76112 -0.11457)"/>
    <path class="b" d="M28.3829,1.27951a42.89244,42.89244,0,0,0,19.23,4.89259,33.01434,33.01434,0,0,0,5.31884-.425V19.00731c0,9.76974-4.76007,20.24714-11.56827,25.47355L28.18787,54.40354,14.92277,44.499C8.24665,39.183,3.76113,29.07381,3.76113,19.34349l0-13.46687a25.65176,25.65176,0,0,0,6.43579.80285c8.81951,0,16.185-4.15908,18.186-5.4M28.34646.11457s-8.19508,5.5649-18.14955,5.5649A24.28036,24.28036,0,0,1,2.76112,4.54675l0,14.79674c0,9.32011,4.24766,20.13216,11.53873,25.93777l13.89058,10.3722L41.96509,45.27968c7.54428-5.7914,11.96669-16.76152,11.96669-26.27237V4.54675a31.50209,31.50209,0,0,1-6.31884.62535A42.02876,42.02876,0,0,1,28.34646.11457Z" transform="translate(-2.76112 -0.11457)"/>
  </g>
  <path class="b" d="M15.89106,20.05774l4.60068,4.68174,3.4005-15.9526,3.20047,17.16638,2.40035.05866,2.985-17.1609L35.694,24.39268,40.61685,19.402c1.10445,4.64771-.22068,9.06431-5.52274,13.10252l.29066,3.52762-3.19738,2.26775.10608,5.68676L28.29289,46.761,24.0486,43.84325v-5.2914l-4.06939-2.51972,0-3.52762C17.09417,28.38032,15.09772,23.212,15.89106,20.05774Z" transform="translate(-2.76112 -0.11457)"/>
  <g>
    <path class="a" d="M33.91084,30.90008a3.90512,3.90512,0,0,1-.7722,2.86818,3.90511,3.90511,0,0,1-2.86818.7722,3.9051,3.9051,0,0,1,.77221-2.86818A3.90509,3.90509,0,0,1,33.91084,30.90008Z" transform="translate(-2.76112 -0.11457)"/>
    <path class="a" d="M22.78207,30.90008a3.90511,3.90511,0,0,1,2.86818.7722,3.90512,3.90512,0,0,1,.7722,2.86818,3.90512,3.90512,0,0,1-2.86818-.7722A3.90512,3.90512,0,0,1,22.78207,30.90008Z" transform="translate(-2.76112 -0.11457)"/>
  </g>
</svg>
