<svg xmlns="http://www.w3.org/2000/svg" viewBox="0 0 42.26152 56.5991">
  <defs>
    <style>
      .a {
        fill: #fff;
        stroke: #231f20;
        stroke-miterlimit: 10;
        stroke-width: 1.14528px;
      }

      .b {
        fill: #231f20;
      }
    </style>
  </defs>
  <g>
    <path class="a" d="M48.90458,34.39833c0,16.12485-11.00277,21.675-20.77541,21.675S7.78834,50.52318,7.78834,34.39833,21.33581.4626,28.9191.62059,48.90458,18.27347,48.90458,34.39833Z" transform="translate(-7.2157 -0.0469)"/>
    <ellipse class="b" cx="34.51206" cy="28.13946" rx="4.55218" ry="8.89744"/>
    <path class="b" d="M15.70273,25.39905c-1.18548,3.59414-4.082,5.86936-6.46959,5.08185s-1.18694-3.31736-.00146-6.9115,1.90689-6.89154,4.29447-6.104S16.88821,21.80491,15.70273,25.39905Z" transform="translate(-7.2157 -0.0469)"/>
    <circle class="b" cx="18.527" cy="12.22898" r="2.27609"/>
    <ellipse class="b" cx="15.42231" cy="50.12614" rx="5.66977" ry="4.15224"/>
    <ellipse class="b" cx="18.86816" cy="32.3321" rx="5.13772" ry="5.5865"/>
    <path class="b" d="M31.79057,1.47383c0,3.08534,2.53688,6.47216,5.37436,6.47216s-.02548-.28447-.02548-3.36981Z" transform="translate(-7.2157 -0.0469)"/>
  </g>
</svg>
