<svg xmlns="http://www.w3.org/2000/svg" viewBox="0 0 44.27863 48.04871">
  <defs>
    <style>
      .a, .c, .d, .e, .f, .g, .h, .i, .j, .k, .l, .m, .n {
        fill: none;
        stroke-miterlimit: 10;
      }

      .a {
        stroke: #000;
        stroke-width: 3px;
      }

      .a, .d, .e, .f, .g, .h, .i, .j, .k, .l, .m, .n {
        stroke-linecap: round;
      }

      .b {
        fill: #fff;
      }

      .c, .d, .e, .f, .g, .h, .i, .j, .k, .l, .m, .n {
        stroke: #fff;
      }

      .d {
        stroke-width: 0.3336px;
      }

      .e {
        stroke-width: 0.30977px;
      }

      .f {
        stroke-width: 0.28145px;
      }

      .g {
        stroke-width: 0.23785px;
      }

      .h {
        stroke-width: 0.20975px;
      }

      .i {
        stroke-width: 0.19392px;
      }

      .j {
        stroke-width: 0.26629px;
      }

      .k {
        stroke-width: 0.24967px;
      }

      .l {
        stroke-width: 0.21801px;
      }

      .m {
        stroke-width: 0.18104px;
      }

      .n {
        stroke-width: 0.32933px;
      }
    </style>
  </defs>
  <line class="a" x1="30.40561" y1="1.5" x2="42.77863" y2="46.54871"/>
  <path d="M40.33839,28.74938S37.86882,34.63565,25.26645,32.889s-15.4519,4.244-15.4519,4.244L3.997,15.95186s4.27589-5.26069,14.312-3.93092A20.80728,20.80728,0,0,0,34.5208,7.56822Z" transform="translate(-3.99696 -4.6459)"/>
  <path class="b" d="M32.1077,22.1966c.76486-.84055,1.298-2.08.5244-2.92819a2.143,2.143,0,0,0-1.33247-.857,1.79676,1.79676,0,0,0-1.39313.3353A1.13319,1.13319,0,0,0,29.425,19.8514a9.09967,9.09967,0,0,0,.31059,1.73109c.15271.62677.3132,1.28664.4201,1.97023a10.31225,10.31225,0,0,1,.10821,1.043,10.089,10.089,0,0,1-.00534,1.05227A5.99381,5.99381,0,0,1,28.3575,29.528a7.63768,7.63768,0,0,1-4.16719,2.026,9.62051,9.62051,0,0,1-5.14579-.70335,14.66243,14.66243,0,0,1-4.20008-2.79478l-.02954-.02728-.06825-.07788a13.7373,13.7373,0,0,1-2.31978-3.28507,7.77365,7.77365,0,0,1-.82986-4.10114,7.27892,7.27892,0,0,1,1.48742-3.70637,10.70064,10.70064,0,0,1,2.8299-2.5748l.03929-.025a2.99572,2.99572,0,0,1,3.77581.73211,2.19743,2.19743,0,0,1-.36168,3.36363,2.398,2.398,0,0,1-.23728.132,6.88849,6.88849,0,0,0-1.89975,1.35617,3.66647,3.66647,0,0,0-.996,1.72467,3.62758,3.62758,0,0,0,.19713,2.04614,8.935,8.935,0,0,0,1.33,2.30865l-.09766-.105A10.13813,10.13813,0,0,0,20.3454,27.993a5.93385,5.93385,0,0,0,3.08471.72023A5.24172,5.24172,0,0,0,26.33716,27.646a4.12225,4.12225,0,0,0,1.61349-2.46288A10.76221,10.76221,0,0,0,27.86,21.67184a9.75149,9.75149,0,0,1-.12813-2.067,2.789,2.789,0,0,1,.33383-1.14283,2.14712,2.14712,0,0,1,.4016-.49495l.24139-.20969.26692-.15469a3.29216,3.29216,0,0,1,2.50386-.3117,3.48278,3.48278,0,0,1,2.046,1.5445,2.70127,2.70127,0,0,1,.41506,1.12485,2.36311,2.36311,0,0,1-.16516,1.07644A4.22574,4.22574,0,0,1,32.595,22.63914a.35146.35146,0,0,1-.45973-.029.28014.28014,0,0,1-.04316-.39649Z" transform="translate(-3.99696 -4.6459)"/>
  <polygon class="c" points="28.167 16.517 29.795 17.663 27.794 18.728 28.167 16.517"/>
  <path class="d" d="M17.094,16.08959a1.0529,1.0529,0,0,1-1.29936-.3353.75309.75309,0,0,1,.217-1.14756" transform="translate(-3.99696 -4.6459)"/>
  <path class="d" d="M18.172,17.57055a1.0529,1.0529,0,0,1-1.29936-.3353.75308.75308,0,0,1,.217-1.14756" transform="translate(-3.99696 -4.6459)"/>
  <path class="d" d="M17.94349,18.73759a.75307.75307,0,0,1,.217-1.14756" transform="translate(-3.99696 -4.6459)"/>
  <path class="d" d="M14.31949,18.8834a.97469.97469,0,0,1-1.30135.04446.81925.81925,0,0,1-.20469-1.19471" transform="translate(-3.99696 -4.6459)"/>
  <path class="d" d="M15.82086,20.03306a.9747.9747,0,0,1-1.30134.04446.81926.81926,0,0,1-.20469-1.19472" transform="translate(-3.99696 -4.6459)"/>
  <path class="d" d="M16.02185,21.25032a.81925.81925,0,0,1-.20469-1.19471" transform="translate(-3.99696 -4.6459)"/>
  <g>
    <path class="e" d="M13.25069,23.22955a.71872.71872,0,0,1-.82145.72843" transform="translate(-3.99696 -4.6459)"/>
    <path class="e" d="M14.9751,23.34087a.71872.71872,0,0,1-.82144.72843.95389.95389,0,0,1-.90641-.83775" transform="translate(-3.99696 -4.6459)"/>
    <path class="e" d="M16.36479,24.024a.59042.59042,0,0,1-.50464.16473.95388.95388,0,0,1-.9064-.83775" transform="translate(-3.99696 -4.6459)"/>
  </g>
  <g>
    <path class="f" d="M15.998,28.00924a.704.704,0,0,1,.19361.784" transform="translate(-3.99696 -4.6459)"/>
    <path class="f" d="M17.081,27.1033a.66345.66345,0,0,1,.02744,1.00417.85421.85421,0,0,1-1.11106-.0948" transform="translate(-3.99696 -4.6459)"/>
    <path class="f" d="M18.39323,26.86493a.5961.5961,0,0,1-.2066.35283.8542.8542,0,0,1-1.11105-.0948" transform="translate(-3.99696 -4.6459)"/>
  </g>
  <g>
    <path class="f" d="M20.4091,30.48772a.84939.84939,0,0,1,.56814.65336" transform="translate(-3.99696 -4.6459)"/>
    <path class="f" d="M20.83357,29.17267a.78664.78664,0,0,1,.54526.93136.724.724,0,0,1-.96845.38717" transform="translate(-3.99696 -4.6459)"/>
    <path class="f" d="M21.80778,28.80628a.724.724,0,0,1-.96845.38717" transform="translate(-3.99696 -4.6459)"/>
  </g>
  <g>
    <path class="g" d="M25.051,30.50785a.76151.76151,0,0,1,.83913.47051" transform="translate(-3.99696 -4.6459)"/>
    <path class="g" d="M24.63641,29.32865a.76154.76154,0,0,1,.83914.4705.52834.52834,0,0,1-.42195.71079" transform="translate(-3.99696 -4.6459)"/>
    <path class="g" d="M25.073,28.63112a.52834.52834,0,0,1-.42194.71079" transform="translate(-3.99696 -4.6459)"/>
  </g>
  <g>
    <path class="h" d="M28.13617,28.59389a.63338.63338,0,0,1,.82748.05629" transform="translate(-3.99696 -4.6459)"/>
    <path class="h" d="M27.27527,27.78868a.63338.63338,0,0,1,.82748.05629.49718.49718,0,0,1,.03632.74959" transform="translate(-3.99696 -4.6459)"/>
    <path class="h" d="M27.25576,27.04424a.49715.49715,0,0,1,.03632.74958" transform="translate(-3.99696 -4.6459)"/>
  </g>
  <g>
    <path class="i" d="M29.56108,26.10566c.08076-.25079.23288-.34571.52081-.242" transform="translate(-3.99696 -4.6459)"/>
    <path class="i" d="M28.52093,25.72944a.499.499,0,0,1,.66758-.26624.54184.54184,0,0,1,.37513.64194" transform="translate(-3.99696 -4.6459)"/>
    <path class="i" d="M28.16122,25.08559a.54185.54185,0,0,1,.37513.64194" transform="translate(-3.99696 -4.6459)"/>
  </g>
  <g>
    <path class="i" d="M30.62129,23.76487" transform="translate(-3.99696 -4.6459)"/>
    <path class="i" d="M29.5385,23.63192a.36364.36364,0,0,1,.46035-.38625" transform="translate(-3.99696 -4.6459)"/>
    <path class="i" d="M28.458,23.49786a.458.458,0,0,1,.55053-.42042.58755.58755,0,0,1,.53226.55337" transform="translate(-3.99696 -4.6459)"/>
  </g>
  <path class="i" d="M28.189,21.13923a.458.458,0,0,1,.55053-.42042.58755.58755,0,0,1,.53226.55336" transform="translate(-3.99696 -4.6459)"/>
  <path class="i" d="M28.35347,18.51459a.57891.57891,0,0,1,.763.02353.46537.46537,0,0,1,.065.69456" transform="translate(-3.99696 -4.6459)"/>
  <path class="i" d="M30.55325,17.28817a.60669.60669,0,0,1,.60557.4875.44205.44205,0,0,1-.46868.49528" transform="translate(-3.99696 -4.6459)"/>
  <g>
    <path class="j" d="M15.05238,25.73854a.59251.59251,0,0,1-.2921.87887.8513.8513,0,0,1-1.01016-.3719" transform="translate(-3.99696 -4.6459)"/>
    <path class="j" d="M16.353,25.2344a.59251.59251,0,0,1-.29211.87886.85128.85128,0,0,1-1.01015-.37189" transform="translate(-3.99696 -4.6459)"/>
    <path class="j" d="M17.35186,25.622a.85129.85129,0,0,1-1.01015-.3719" transform="translate(-3.99696 -4.6459)"/>
  </g>
  <g>
    <path class="j" d="M18.83339,28.94006a.66137.66137,0,1,1-.54069,1.19021" transform="translate(-3.99696 -4.6459)"/>
    <path class="j" d="M19.37494,27.75321a.66137.66137,0,1,1-.54069,1.1902" transform="translate(-3.99696 -4.6459)"/>
  </g>
  <g>
    <path class="k" d="M22.8271,30.19083a.75572.75572,0,0,1,.6826.71447.59025.59025,0,0,1-.71136.5386" transform="translate(-3.99696 -4.6459)"/>
    <path class="k" d="M22.85778,28.94059a.75571.75571,0,0,1,.68261.71447.59026.59026,0,0,1-.71137.5386" transform="translate(-3.99696 -4.6459)"/>
  </g>
  <g>
    <path class="l" d="M26.44723,29.26437a.686.686,0,0,1,.85171.20459.49378.49378,0,0,1-.12535.754" transform="translate(-3.99696 -4.6459)"/>
    <path class="l" d="M25.72375,28.307a.686.686,0,0,1,.85171.20458.49379.49379,0,0,1-.12535.754" transform="translate(-3.99696 -4.6459)"/>
  </g>
  <g>
    <path class="m" d="M28.61139,27.15242a.507.507,0,0,1,.68676-.10512.46478.46478,0,0,1,.19864.64024" transform="translate(-3.99696 -4.6459)"/>
    <path class="m" d="M27.72851,26.61734a.507.507,0,0,1,.68676-.10512.46478.46478,0,0,1,.19864.64024" transform="translate(-3.99696 -4.6459)"/>
  </g>
  <g>
    <path class="m" d="M29.1384,24.77709a.43511.43511,0,0,1,.54215-.36162.53973.53973,0,0,1,.466.53868" transform="translate(-3.99696 -4.6459)"/>
    <path class="m" d="M28.13241,24.59911a.43511.43511,0,0,1,.54215-.36162.53972.53972,0,0,1,.466.53868" transform="translate(-3.99696 -4.6459)"/>
  </g>
  <g>
    <path class="m" d="M29.98177,22.38569" transform="translate(-3.99696 -4.6459)"/>
    <path class="m" d="M28.97134,22.30879a.42158.42158,0,0,1,.48757-.41872" transform="translate(-3.99696 -4.6459)"/>
    <path class="m" d="M28.32547,21.80479c.279.02124.63816.25037.6479.50285" transform="translate(-3.99696 -4.6459)"/>
  </g>
  <g>
    <path class="m" d="M28.61947,19.84908a.42158.42158,0,0,1,.48757-.41872" transform="translate(-3.99696 -4.6459)"/>
    <path class="m" d="M28.09865,19.35232a.55564.55564,0,0,1,.52285.49561" transform="translate(-3.99696 -4.6459)"/>
  </g>
  <g>
    <path class="m" d="M29.63755,18.10583a.56092.56092,0,0,1,.71349.11727" transform="translate(-3.99696 -4.6459)"/>
    <path class="m" d="M29.685,17.46851a.4172.4172,0,0,1-.045.63813" transform="translate(-3.99696 -4.6459)"/>
  </g>
  <g>
    <path class="d" d="M16.12344,17.88044a.765.765,0,0,0-.11161,1.17084,1.03826,1.03826,0,0,0,1.31261.24178" transform="translate(-3.99696 -4.6459)"/>
    <path class="d" d="M14.92289,16.47205a.76494.76494,0,0,0-.11161,1.17084,1.03826,1.03826,0,0,0,1.31261.24178" transform="translate(-3.99696 -4.6459)"/>
    <path class="d" d="M13.82,16.43782a1.00828,1.00828,0,0,0,1.07772.03649" transform="translate(-3.99696 -4.6459)"/>
  </g>
  <g>
    <path class="n" d="M14.29294,21.20268a.86944.86944,0,0,0,.4548,1.14683.89731.89731,0,0,0,1.21836-.27878" transform="translate(-3.99696 -4.6459)"/>
    <path class="n" d="M12.62213,20.33843a.86945.86945,0,0,0,.45481,1.14684.89731.89731,0,0,0,1.21835-.27878" transform="translate(-3.99696 -4.6459)"/>
    <path class="n" d="M11.89215,20.75073a.80177.80177,0,0,0,.70987-.40046" transform="translate(-3.99696 -4.6459)"/>
  </g>
</svg>
