<svg xmlns="http://www.w3.org/2000/svg" viewBox="0 0 56.67968 42.05132">
  <defs>
    <style>
      .a, .c {
        fill: #e5b00e;
      }

      .b {
        fill: #fff;
      }

      .c {
        stroke: #fff;
        stroke-miterlimit: 10;
        stroke-width: 1.57127px;
      }
    </style>
  </defs>
  <g>
    <g>
      <g>
        <g>
          <path class="a" d="M11.28263,49.28735.96591,43.15964a2.53791,2.53791,0,0,1-.38942-2.44791l4.46388-20.5999A2.53794,2.53794,0,0,1,7.42232,18.4499L41.24981,8.81281A2.53793,2.53793,0,0,1,43.04,9.55176L51.45838,16.402" transform="translate(0.10553 -8.34374)"/>
          <path class="b" d="M10.90292,49.92664c-3.36758-2.16259-6.785-4.24122-10.21384-6.30073A3.06222,3.06222,0,0,1,.05086,40.5977c1.48942-6.86622,2.804-13.77035,4.31869-20.63113a3.21125,3.21125,0,0,1,3.05264-2.18986c-.95007.17437,33.923-9.43873,33.69933-9.41341a2.94341,2.94341,0,0,1,2.20817.83263c2.092,1.72875,4.20119,3.43757,6.38374,5.05159.72116.54672,1.46527,1.06525,2.21426,1.57777l-.93862,1.15348c-2.61393-2.51872-5.42783-4.81233-8.25492-7.08409a2.079,2.079,0,0,0-1.48426-.61449l.12788-.01786L7.516,19.12377a1.86936,1.86936,0,0,0-1.83141,1.2249C4.35606,26.73116,2.5391,34.13608,1.09345,40.86605a1.96534,1.96534,0,0,0,.29813,1.95768l-.14868-.13025c3.449,2.02559,6.90927,4.03206,10.41945,5.95457l-.75943,1.27859Z" transform="translate(0.10553 -8.34374)"/>
        </g>
        <g>
          <path class="a" d="M53.22448,36.74807,12.581,49.67366a2.53793,2.53793,0,0,1-2.382-3.41393l3.74514-18.72836a2.53794,2.53794,0,0,1,2.382-1.66193l33.42228-9.98135a2.53792,2.53792,0,0,1,2.37922,1.65453L55.6037,33.32673A2.53794,2.53794,0,0,1,53.22448,36.74807Z" transform="translate(0.10553 -8.34374)"/>
          <path class="b" d="M53.35182,37.56866c-.25046.016-40.54518,12.87167-40.77064,12.821a3.34633,3.34633,0,0,1-3.203-4.43173c.14536-.89616.53326-3.18724.79986-4.5718.55194-3.06972,2.06034-11.08832,2.71539-14.24131a3.07415,3.07415,0,0,1,3.42979-2.01953c-1.09021.21852,33.45059-10.03634,33.19592-10.004l.11046-.03307.11891-.00036A3.29334,3.29334,0,0,1,52.897,17.37329c.50654,2.64667,1.13565,5.26636,1.71424,7.89718l1.76613,7.88576a3.36671,3.36671,0,0,1-3.02559,4.41243Zm-.25468-1.64119A1.76023,1.76023,0,0,0,54.8299,33.497l-1.70984-7.89813c-.58008-2.63048-1.10965-5.2721-1.76179-7.88672l.03078.10463a1.79124,1.79124,0,0,0-1.64056-1.12847c1.17582-.27471-33.48593,9.96-33.20931,9.89355A2.13724,2.13724,0,0,0,14.995,27.91772C14.6164,30.00135,12.67409,39.1183,12.09271,41.769c-.35312,1.58685-.68342,3.17838-1.05929,4.76059a1.69735,1.69735,0,0,0,.12462,1.59895,1.80783,1.80783,0,0,0,1.42288.82905l-.21684.03365L53.09714,35.92747Z" transform="translate(0.10553 -8.34374)"/>
        </g>
        <g>
          <line class="a" x1="5.7571" y1="10.10616" x2="13.43586" y2="17.66528"/>
          <path class="b" d="M12.96724,26.90976c.481-2.12472-6.11823-6.00832-6.86984-6.28523s-.65369,1.10819-1.06807,1.345l.65788-3.545,2.42766.34083c-1.345.59337-1.28743.81745-.75161,1.30542,2.15829,1.96552,4.74886,3.14093,7.23179,4.7154a3.48616,3.48616,0,0,0,2.0719.296Z" transform="translate(0.10553 -8.34374)"/>
        </g>
      </g>
      <path class="b" d="M45.724,16.31243c1.8816-.5376,3.65774-1.29746,1.23854-3.17907l4.06139,2.61078Z" transform="translate(0.10553 -8.34374)"/>
    </g>
    <path class="c" d="M14.05609,58.43518" transform="translate(0.10553 -8.34374)"/>
  </g>
</svg>
