<svg xmlns="http://www.w3.org/2000/svg" viewBox="0 0 52.59224 38.8375">
  <defs>
    <style>
      .a {
        fill: #fff;
        stroke: #c2b59b;
        stroke-miterlimit: 10;
        stroke-width: 0.5px;
      }

      .b {
        fill: #fff1e6;
      }

      .c {
        fill: #a02142;
      }
    </style>
  </defs>
  <g>
    <path class="a" d="M2.53239,29.80138s-.30917,6.2158.4188,7.35974S7.631,38.51306,10.75084,39.761s5.19977,4.67979,11.85547,6.44771,16.01529-.832,20.69508-2.80787,10.08755-5.09578,10.60753-6.44772.64169-13.59587.64169-13.59587" transform="translate(-2.21717 -8.20877)"/>
    <g>
      <path class="b" d="M2.52527,28.66524s1.11719-1.50094,2.69463-3.2631a13.88215,13.88215,0,0,1,5.82771-3.54876l11.5873-4.15066a20.84065,20.84065,0,0,0,3.93753-1.61113l12.1682-7.03392a7.07726,7.07726,0,0,1,6.26943-.21148c5.7231,3.17209,10.32244,7.9761,9.75132,15.1781a8.8638,8.8638,0,0,1-4.40515,7.3397c-6.28395,3.24113-12.48171,6.08156-22.706,7.24986-1.27923.41433-6.47879-.19784-8.49139-1.05334,0,0-8.57284-4.34248-10.842-5.14423a22.82414,22.82414,0,0,0-5.25222-.98011C2.26285,31.22535,2.0634,29.3537,2.52527,28.66524Z" transform="translate(-2.21717 -8.20877)"/>
      <path class="c" d="M33.43333,28.15429c-2.16255-3.18051,2.8347-12.41832,3.03026-15.0396.24442-3.276,4.5093-3.89747,5.88768-3.77233s10.64035,3.89679,10.71708,12.29725-7.6339,8.60863-7.6339,8.60863S35.94613,31.84988,33.43333,28.15429Z" transform="translate(-2.21717 -8.20877)"/>
      <path class="c" d="M34.7819,15.23842l-.89129,3.19135a32.99182,32.99182,0,0,1-1.81428,7.1117c-.39024,1.25324-1.49494,1.73417-2.78879,1.95516a6.27734,6.27734,0,0,1-4.6829-.91438,7.55039,7.55039,0,0,1-2.68007-3.97785c.02644-1.30421-.12871-1.49456,1.42888-3.11957s6.55765-4.24823,9.95789-5.69036C34.26585,13.32553,35.06894,14.26983,34.7819,15.23842Z" transform="translate(-2.21717 -8.20877)"/>
      <path class="c" d="M39.23342,33.10389a4.47878,4.47878,0,0,0,.51089.92088c.31384.41815,1.56426.18936,1.7683.09805,1.07236-.16321,4.22957-1.84681,3.8107-2.6811-.3463-.68974-3.72129-.685-5.63272.55C39.361,32.09709,39.012,33.12483,39.23342,33.10389Z" transform="translate(-2.21717 -8.20877)"/>
      <path class="c" d="M22.67338,37.40143c-2.78144-2.199-2.07612-8.95541.564-9.63151,2.35261-.60247,7.181,1.00827,8.68084,1.45479a17.14273,17.14273,0,0,1,6.43508,3.31618c.86151.55569.5185,2.18133-1.19913,3.07912C33.14049,37.0757,25.45482,39.60043,22.67338,37.40143Z" transform="translate(-2.21717 -8.20877)"/>
      <path class="c" d="M11.42988,30.82448l.1457-.45079c.23775-.92264,1.0904-1.67379,1.91184-1.19108l5.0082,2.91324a2.9129,2.9129,0,0,1,1.27652,1.69881l.54224,1.95522c.40777,1.06548-.44617,1.42025-.93642,1.13869a21.06458,21.06458,0,0,1-6.89035-3.714A2.24854,2.24854,0,0,1,11.42988,30.82448Z" transform="translate(-2.21717 -8.20877)"/>
      <path class="c" d="M19.15608,30.28a4.9467,4.9467,0,0,0,2.25343-2.16263c1.10713-.42152.08561-4.9843-.97545-6.28606a2.33414,2.33414,0,0,0-2.33318-1.22367s-4.26564,1.45881-5.26342,2.29852a2.72555,2.72555,0,0,0-1.16024,2.19635c-.209,1.05107,1.7772,3.13125,1.7772,3.13125a22.56092,22.56092,0,0,0,3.70227,2.28861A1.791,1.791,0,0,0,19.15608,30.28Z" transform="translate(-2.21717 -8.20877)"/>
      <path class="c" d="M11.14669,24.45161c.314.87143-.24887,6.25353-.24887,6.25353-.08828.49033-.79729,1.294-1.47581,1.15007-2.80876-.57162-4.43588-.91862-6.04838-1.85709-.45628-.12547-.1321-1.37363-.1321-1.37363s2.536-3.75914,5.8122-5.01447A1.59231,1.59231,0,0,1,11.14669,24.45161Z" transform="translate(-2.21717 -8.20877)"/>
    </g>
  </g>
</svg>
