<svg xmlns="http://www.w3.org/2000/svg" viewBox="0 0 20.22763 45.17081">
  <defs>
    <style>
      .a {
        fill: #fff;
      }

      .b {
        fill: #808285;
      }

      .c {
        fill: #6d6e71;
      }

      .d {
        fill: #414042;
      }
    </style>
  </defs>
  <g>
    <g>
      <path class="a" d="M23.52266,9.52393s.82853,1.40929.05768,6.69586S19.119,26.35715,18.18852,30.13592s.30759,17.98436.30759,17.98436,2.09159,2.894,9.41218,2.894,8.38977-1.68263,8.797-2.27388c.49214-1.39534,1.29186-4.70281.89505-19.42193-.25081-2.88819-2.61094-6.833-3.79981-9.24614-1.18134-2.39784-.73225-10.318-.73225-10.318a6.19745,6.19745,0,0,0,1.25636-.46918c.32152-.20275-.131-2.20146-.131-2.20146s-1.30573-.79089-5.86716-.731-5.517.68257-5.517.68257S22.206,9.017,22.59,9.20132A5.98983,5.98983,0,0,0,23.52266,9.52393Z" transform="translate(-17.6678 -6.16233)"/>
      <path class="b" d="M23.732,9.24452a.98341.98341,0,0,1,.23075.46635,20.37872,20.37872,0,0,1-.96346,9.65455c-1.50791,4.7226-5.09548,8.74766-4.97015,13.87017A116.36277,116.36277,0,0,0,18.896,48.08532l-.07449-.20014a8.35292,8.35292,0,0,0,3.9952,2.16949,25.03489,25.03489,0,0,0,9.5393.34026c1.4063-.15339,3.4272-.80707,4.0523-1.75939,1.33482-4.7426,1.01468-9.89264,1.11511-14.79718-.03244-1.65795.02617-3.34207-.12132-4.97177-.60334-3.29659-2.52452-6.0968-3.92123-9.12035-.92887-3.26914-.74127-6.654-.71722-10.009l.00817-.21625.21912-.06165a5.44815,5.44815,0,0,0,1.1615-.4398c-.09391.08249-.04089.05661-.04463.00937a7.12584,7.12584,0,0,0-.24048-1.86977c-.00254-.00612.15308.2124.15278.21109-2.97918-1.20232-6.62928-.93186-9.78263-.48144A4.94082,4.94082,0,0,0,22.9767,7.292l.12582-.16736a5.84337,5.84337,0,0,0-.29611,1.82317c.00155.0351.03191.032-.04383-.03511a4.57738,4.57738,0,0,0,.47767.17112,2.59312,2.59312,0,0,1,.49179.16075Zm-.41876.55882c.02421.01281.09021.05917.10962.05524L23.40953,9.855l-.026-.00725L23.33235,9.833a4.52861,4.52861,0,0,1-.95064-.36722c-.32384-.28447-.24027-.56758-.23715-.88053a9.70624,9.70624,0,0,1,.40593-1.75267l.092-.05412c2.86039-.82228,5.8315-.61058,8.76952-.535a9.20444,9.20444,0,0,1,3.07372.60683,9.95186,9.95186,0,0,1,.27388,2.01671c.09784.84149-.99057.98071-1.61374,1.1823l.227-.27764c-.14177,3.25164-.4135,6.6988.44033,9.85358,1.32653,2.98477,3.26,5.84785,3.86427,9.19985.18426,3.3541.22451,6.66948.21722,10.00932-.10425,3.37919.08386,6.79922-.92988,10.0847A4.00871,4.00871,0,0,1,34.88794,50.46a21.88563,21.88563,0,0,1-7.346.87313c-3.309-.11305-6.871-.43837-9.37111-2.97749l-.0672-.07361-.00741-.127c-.17006-3.31949-.32238-6.631-.38853-9.94978.01247-3.289-.35726-6.77253.9327-9.881,1.25069-3.08888,3.00731-5.9309,3.99946-9.079.87754-3.02036,1.41389-6.43168.59787-9.513l-.01159-.0224-.00548-.01127a.27331.27331,0,0,0,.09264.10473Z" transform="translate(-17.6678 -6.16233)"/>
    </g>
    <path class="c" d="M33.9167,9.5702c-.37861.23875-.57516.33608-.57516.33608a31.453,31.453,0,0,1-10.01343-.22859,2.72839,2.72839,0,0,1-1.047-.42231C22.09054,9.074,22.223,8.6533,22.223,8.6533a2.264,2.264,0,0,0,1.42788.63127,38.99366,38.99366,0,0,0,7.12314.58191,10.04885,10.04885,0,0,0,3.39774-.74457Z" transform="translate(-17.6678 -6.16233)"/>
    <ellipse class="d" cx="10.86372" cy="1.06501" rx="4.49225" ry="0.49232"/>
    <path class="d" d="M28.29254,50.92192c-7.375,0-9.62283-2.49118-10.05282-3.17625l-.13345-1.09612a7.47691,7.47691,0,0,0,2.69855,2.16733,15.48643,15.48643,0,0,0,7.25049,1.46979c7.03524-.08322,8.58593-2.1219,9.18458-2.42407l-.10379.56051C36.679,49.08874,35.67083,50.92192,28.29254,50.92192Z" transform="translate(-17.6678 -6.16233)"/>
  </g>
</svg>
