<svg xmlns="http://www.w3.org/2000/svg" viewBox="0 0 49.11908 40.75678">
  <defs>
    <style>
      .a, .c {
        fill: #58595b;
      }

      .a, .d, .e {
        stroke: #fff;
        stroke-miterlimit: 10;
      }

      .b {
        fill: #fff;
      }

      .d {
        fill: #231f20;
        stroke-width: 1.51743px;
      }

      .e {
        fill: none;
        stroke-width: 0.73616px;
      }
    </style>
  </defs>
  <path class="a" d="M34.03653,49.33573,13.7638,46.48052c-1.15258-.44189-2.17551-.19931-1.73362-1.35189l13.48428-10.248s1.731-1.81388,3.55985-1.40237c2.45693.55283,21.03549,2.91261,21.03549,2.91261,2.70271.29548.74927,1.67438.74927,1.67438L37.92,48.04124A4.94738,4.94738,0,0,1,34.03653,49.33573Z" transform="translate(-2.9225 -9.14821)"/>
  <g>
    <path class="b" d="M36.41309,33.28418l1.58789-.28906-.02637-.125A18.551,18.551,0,0,0,27.4292,19.46631l1.45947-2.84961c5.49024,3.2168,8.82324,8.11475,10.79688,15.85986l.02441.09668,2.39942-.07226-2.042,6.05468Z" transform="translate(-2.9225 -9.14821)"/>
    <path class="c" d="M28.93944,16.792c5.39085,3.19931,8.67321,8.05881,10.62457,15.71461l.0495.19421.20033-.00607,2.11989-.06423-1.90491,5.649-3.4021-4.90689,1.27094-.23107.25217-.04585-.05212-.251A18.65888,18.65888,0,0,0,27.5983,19.41043L28.93944,16.792m-.10189-.34945-1.57771,3.08026a18.46624,18.46624,0,0,1,10.5931,13.37283l-1.65282.30051,3.90665,5.63462,2.17873-6.461-2.47924.07512c-1.63662-6.42095-4.48388-12.25052-10.96871-16.00231Z" transform="translate(-2.9225 -9.14821)"/>
  </g>
  <path class="b" d="M15.47243,20.81629s-3.5201-.56-3.20009-2.48008a1.645,1.645,0,0,1,1.02691-1.49907l.45263.39228.36051-1.45328s-3.84011-1.6-3.92011,2.24006S15.47243,20.81629,15.47243,20.81629Z" transform="translate(-2.9225 -9.14821)"/>
  <path class="b" d="M12.22553,21.6593c1.28.88,6.27236.40073,6.34205,2.24759-.10454,2.14306-3.65516.10949-3.65516.10949a4.22079,4.22079,0,0,0-.387.5526c.47042.41815,3.99421,3.765,5.86509.2345a3.02227,3.02227,0,0,0-2.198-3.50718C16.80324,20.74526,16.07369,21.83137,12.22553,21.6593Z" transform="translate(-2.9225 -9.14821)"/>
  <path class="b" d="M12.48831,27.00312s3.48464.55751,3.16463,2.47757a1.63728,1.63728,0,0,1-.99145,1.50158L14.20886,30.59l-.36051,1.45328s3.89539,1.60081,3.92011-2.24006C17.7954,25.61822,12.48831,27.00312,12.48831,27.00312Z" transform="translate(-2.9225 -9.14821)"/>
  <path class="b" d="M15.834,26.1312c-1.28-.88-6.31078-.37182-6.38048-2.21868.10454-2.14306,3.65516-.10949,3.65516-.10949a4.2222,4.2222,0,0,0,.387-.55259c-.47043-.41816-4.13054-3.64567-5.96-.31784a3.17406,3.17406,0,0,0,2.29286,3.59051C11.21785,27.07416,11.85082,26.101,15.834,26.1312Z" transform="translate(-2.9225 -9.14821)"/>
  <g>
    <rect class="d" x="0.75871" y="0.75871" width="22.47564" height="29.87865" rx="1.71772"/>
    <rect class="e" x="3.66435" y="3.40523" width="16.66436" height="24.58562" rx="0.95876"/>
  </g>
</svg>
